<?xml version="1.0" encoding="UTF-8" standalone="no"?>
<svg
   xmlns:dc="http://purl.org/dc/elements/1.1/"
   xmlns:cc="http://creativecommons.org/ns#"
   xmlns:rdf="http://www.w3.org/1999/02/22-rdf-syntax-ns#"
   xmlns:svg="http://www.w3.org/2000/svg"
   xmlns="http://www.w3.org/2000/svg"
   xmlns:sodipodi="http://sodipodi.sourceforge.net/DTD/sodipodi-0.dtd"
   xmlns:inkscape="http://www.inkscape.org/namespaces/inkscape"
   width="64"
   height="64"
   viewBox="0 0 16.933333 16.933334"
   version="1.1"
   id="svg8"
   inkscape:version="0.92.3 (2405546, 2018-03-11)"
   sodipodi:docname="09-Skill.svg"
   inkscape:export-filename="/home/wanzabuyumna/@WANZ_DESIGN/NICON STUDIO MAGANG/Style Line/Style Line/Icon 8/Icon 8.png"
   inkscape:export-xdpi="96"
   inkscape:export-ydpi="96">
  <defs
     id="defs2" />
  <sodipodi:namedview
     id="base"
     pagecolor="#ffffff"
     bordercolor="#959595"
     borderopacity="1"
     inkscape:pageopacity="0"
     inkscape:pageshadow="2"
     inkscape:zoom="2"
     inkscape:cx="31.914404"
     inkscape:cy="16.108859"
     inkscape:document-units="px"
     inkscape:current-layer="layer1"
     inkscape:document-rotation="0"
     showgrid="false"
     units="px"
     inkscape:window-width="1920"
     inkscape:window-height="1040"
     inkscape:window-x="0"
     inkscape:window-y="0"
     inkscape:window-maximized="1"
     inkscape:pagecheckerboard="0" />
  <metadata
     id="metadata5">
    <rdf:RDF>
      <cc:Work
         rdf:about="">
        <dc:format>image/svg+xml</dc:format>
        <dc:type
           rdf:resource="http://purl.org/dc/dcmitype/StillImage" />
      </cc:Work>
    </rdf:RDF>
  </metadata>
  <g
     inkscape:label="09-Skill"
     inkscape:groupmode="layer"
     id="layer1">
    <path
       style="display:inline;opacity:1;fill:#e4eff8;fill-opacity:1;stroke:none;stroke-width:0.52916718;stroke-linecap:round;stroke-linejoin:round;stroke-miterlimit:4;stroke-dasharray:none;stroke-dashoffset:0;stroke-opacity:1"
       inkscape:transform-center-x="0.0035997589"
       inkscape:transform-center-y="-0.11757718"
       d="M 5.272651,3.6098859 C 5.182571,3.3744924 5.176251,3.159291 5.713064,2.6132355 6.843884,1.4629371 6.547885,2.7475076 8.032826,2.1175164 9.517767,1.4875255 8.388362,0.8076876 10.001356,0.7939143 c 1.612994,-0.013773 0.495362,0.685252 1.990845,1.2897939 1.495483,0.6045416 1.17759,-0.6747869 2.327888,0.4560335 1.150298,1.1308203 -0.134272,0.8348205 0.495719,2.3197626 0.629991,1.484942 1.309828,0.3555361 1.323601,1.9685307 0.01377,1.6129948 -0.685251,0.4953626 -1.289793,1.9908463 -0.604541,1.4954827 0.674787,1.1775909 -0.456033,2.3278887 -1.13082,1.150299 -0.83482,-0.134272 -2.319762,0.495719 -1.484941,0.629991 -0.355535,1.309829 -1.968529,1.323602 -1.138866,0.0097 -4.516388,-0.335892 -4.813625,-0.752703 z"
       id="path4999-4"
       inkscape:connector-curvature="0"
       sodipodi:nodetypes="cccccccccccccc" />
    <path
       inkscape:connector-curvature="0"
       id="path5126-7"
       style="fill:#e4eff8;fill-opacity:1;stroke:none;stroke-width:0.52916712;stroke-linecap:round;stroke-linejoin:round"
       d="m 1.962852,16.139623 c -0.642699,0 -1.252413,-0.524062 -1.160106,-1.160087 l 0.407621,-2.808634 c 0.09231,-0.636027 0.589631,-0.864086 1.160106,-1.160089 l 1.333614,-0.691974 1.058326,1.058333 H 5.291575 L 6.3499,10.318839 7.692257,11.010813 c 0.571261,0.294484 1.065693,0.524371 1.160106,1.160089 l 0.417122,2.808634 c 0.09441,0.635716 -0.517407,1.160087 -1.160106,1.160087 z"
       sodipodi:nodetypes="ccccccccccccc" />
    <path
       style="fill:#c4dcf0;fill-opacity:1;stroke:none;stroke-width:0.26458332px;stroke-linecap:butt;stroke-linejoin:miter;stroke-opacity:1"
       d="m 5.820833,11.90625 -0.529166,0.529167 0.529166,2.116666 H 6.35 L 5.820833,12.435417 6.35,11.90625 Z"
       id="path5232-6"
       inkscape:connector-curvature="0"
       sodipodi:nodetypes="ccccccc" />
    <path
       style="fill:#f5f9fb;fill-opacity:1;stroke:none;stroke-width:0.52916712;stroke-linecap:round;stroke-linejoin:round"
       d="M 3.704167,10.31875 2.370398,11.010697 C 1.799923,11.306701 1.30257,11.534806 1.210262,12.170833 l -0.407727,2.808614 c -0.09231,0.636025 0.517437,1.160136 1.160136,1.160136 h 0.529167 c -0.642699,0 -1.252444,-0.524111 -1.160136,-1.160136 l 0.407727,-2.808614 c 0.09231,-0.636027 0.58966,-0.864132 1.160135,-1.160136 l 0.98547,-0.511079 z"
       id="path5201-5"
       inkscape:connector-curvature="0"
       sodipodi:nodetypes="ccccccccccc" />
    <path
       style="fill:#c4dcf0;fill-opacity:1;stroke:none;stroke-width:0.52916712;stroke-linecap:round;stroke-linejoin:round"
       d="m 6.35,10.31875 -0.360185,0.360185 0.643889,0.331762 c 0.571261,0.294485 1.065722,0.524418 1.160135,1.160136 l 0.417546,2.808614 c 0.09441,0.635717 -0.517437,1.160136 -1.160136,1.160136 h 1.058334 c 0.642699,0 1.254547,-0.524419 1.160135,-1.160136 L 8.852173,12.170833 C 8.757763,11.535115 8.263298,11.305182 7.692037,11.010697 Z"
       id="path5148-6"
       inkscape:connector-curvature="0"
       sodipodi:nodetypes="ccccccccccc" />
    <path
       inkscape:connector-curvature="0"
       style="fill:#549ad4;fill-opacity:1;stroke:none;stroke-width:0.52916712;stroke-linecap:butt;stroke-linejoin:round;stroke-miterlimit:4;stroke-dasharray:none;stroke-opacity:1"
       d="m 2.910343,10.848009 1.058325,1.322895 0.793745,-0.793732 0.529162,-10e-7 0.793744,0.793731 L 7.143644,10.848009 6.35,10.389695 H 3.704167 Z"
       id="path5180-9"
       sodipodi:nodetypes="ccccccccc" />
    <path
       style="opacity:1;fill:#3588cb;fill-opacity:1;stroke:none;stroke-width:0.52916712;stroke-linecap:butt;stroke-linejoin:round;stroke-miterlimit:4;stroke-dasharray:none;stroke-dashoffset:0;stroke-opacity:1"
       d="m 5.615678,11.701095 0.288354,0.288354 c 0.144109,-0.02349 0.282887,-0.06095 0.415479,-0.111621 L 7.14375,10.847917 6.69246,10.587528 c 0,0.359589 -0.607043,0.9877 -1.076782,1.113567 z"
       id="path5182-3"
       inkscape:connector-curvature="0"
       sodipodi:nodetypes="cccccc" />
    <path
       style="opacity:1;fill:#ffbd8d;fill-opacity:1;stroke:none;stroke-width:0.52916664;stroke-linecap:round;stroke-linejoin:round;stroke-miterlimit:4;stroke-dasharray:none;stroke-dashoffset:0;stroke-opacity:1"
       d="m 3.96875,9.5250003 v 1.0583327 l 0.79375,0.79375 h 0.5271 l 0.795817,-0.79375 V 9.5250003 Z"
       id="rect5111-7"
       inkscape:connector-curvature="0"
       sodipodi:nodetypes="ccccccc" />
    <path
       style="display:inline;opacity:1;fill:#549ad4;fill-opacity:1;stroke:none;stroke-width:0.52916712;stroke-linecap:butt;stroke-linejoin:round;stroke-miterlimit:4;stroke-dasharray:none;stroke-opacity:1;paint-order:normal"
       d="m 13.49352,6.8800149 c 0,1.8982867 -1.539903,3.4371521 -3.439469,3.4371521 -1.8995661,0 -3.4394685,-1.5388655 -3.4394687,-3.4371521 0,-1.8982867 1.5399025,-3.4371522 3.4394687,-3.4371524 1.899566,1e-7 3.439469,1.5388656 3.439469,3.4371524 z"
       id="path5015-4"
       inkscape:connector-curvature="0"
       sodipodi:nodetypes="ccccc" />
    <path
       inkscape:connector-curvature="0"
       style="display:inline;opacity:1;fill:#3588cb;fill-opacity:1;stroke:none;stroke-width:0.52916712;stroke-linecap:butt;stroke-linejoin:round;stroke-miterlimit:4;stroke-dasharray:none;stroke-opacity:1;paint-order:normal"
       d="M 10.054167,3.4426843 C 8.1544136,3.442621 6.6143819,4.9817268 6.614583,6.8802004 6.6149826,8.1302994 7.2945326,9.2816159 8.389152,9.8867354 7.7623588,9.2668161 7.4092686,8.4224136 7.408333,7.541142 7.40853,5.7159446 8.8891973,4.2364342 10.715625,4.2364343 11.592532,4.2371507 12.433259,4.5858581 13.05295,5.205884 12.446471,4.1189835 11.299462,3.4445749 10.054167,3.4426843 Z"
       id="ellipse5019-5"
       sodipodi:nodetypes="ccccccc" />
    <path
       style="opacity:1;fill:#427096;fill-opacity:1;stroke:none;stroke-width:0.52916712;stroke-linecap:butt;stroke-linejoin:round;stroke-miterlimit:4;stroke-dasharray:none;stroke-dashoffset:0;stroke-opacity:1"
       d="M 2.38118,6.879164 V 6.350125 c 0,-1.4657813 1.180033,-2.6458145 2.645814,-2.6458145 1.46578,0 2.645813,1.1800332 2.645813,2.6458145 v 0.5290419 z"
       id="path5086-2"
       inkscape:connector-curvature="0"
       sodipodi:nodetypes="cccccc" />
    <path
       style="opacity:1;fill:#ffd1b5;fill-opacity:1;stroke:none;stroke-width:0.52916712;stroke-linecap:butt;stroke-linejoin:round;stroke-miterlimit:4;stroke-dasharray:none;stroke-dashoffset:0;stroke-opacity:1"
       d="m 7.143321,7.6901252 c 0,1.1631518 -0.943823,2.0995551 -2.116174,2.0995551 -1.172351,0 -2.116164,-0.9364033 -2.116164,-2.0995551 V 6.8792881 c 1.290609,0 2.488173,-0.4151719 3.16766,-1.077089 0.0067,0.2994477 0.118178,0.5686371 0.316652,0.7671117 0.198475,0.1984746 0.467664,0.3099765 0.748188,0.3099163 z"
       id="path5052-5"
       inkscape:connector-curvature="0"
       sodipodi:nodetypes="cccccccc" />
    <path
       style="opacity:1;fill:#f5f9fb;fill-opacity:1;stroke:none;stroke-width:0.52916712;stroke-linecap:butt;stroke-linejoin:round;stroke-miterlimit:4;stroke-dasharray:none;stroke-dashoffset:0;stroke-opacity:1"
       d="m 2.910933,6.879167 v 0.8108031 c 0,1.1631518 0.943799,2.0996135 2.11615,2.0996135 0.08984,0 0.177749,-0.00741 0.264584,-0.018087 C 4.245377,9.6428249 3.4401,8.7639863 3.4401,7.6899698 V 6.879167 Z"
       id="path5081-4"
       inkscape:connector-curvature="0"
       sodipodi:nodetypes="ccccccc" />
    <path
       inkscape:connector-curvature="0"
       style="opacity:1;fill:#ffb98d;fill-opacity:1;stroke:none;stroke-width:0.52916712;stroke-linecap:butt;stroke-linejoin:round;stroke-miterlimit:4;stroke-dasharray:none;stroke-dashoffset:0;stroke-opacity:1"
       d="m 6.0849,5.8580407 v 1.8319294 c -5.4e-5,0.9813227 -0.67294,1.7990323 -1.586983,2.0314007 0.169365,0.043055 0.345899,0.068213 0.529166,0.068213 1.172351,0 2.11615,-0.9364617 2.11615,-2.0996135 V 6.879167 C 6.86271,6.8792273 6.59395,6.7675829 6.395475,6.5691084 6.209699,6.383332 6.103638,6.1345509 6.0849,5.8580407 Z"
       id="path5070-7"
       sodipodi:nodetypes="cccccccc" />
    <path
       inkscape:connector-curvature="0"
       style="display:inline;opacity:1;fill:#c4dcf0;fill-opacity:1;stroke:none;stroke-width:0.52916718;stroke-linecap:round;stroke-linejoin:round;stroke-miterlimit:4;stroke-dasharray:none;stroke-dashoffset:0;stroke-opacity:1"
       d="m 10.001457,0.79375035 c -0.215056,0.001836 -0.37876,0.016488 -0.509013,0.0403076 0.784365,0.15315636 0.167455,0.73460805 1.441255,1.24953615 0.683516,0.2763079 0.984488,0.159694 1.223698,0.058911 -0.05394,-0.018352 -0.105895,-0.034871 -0.165364,-0.058911 C 10.49655,1.4790521 11.614451,0.77997733 10.001457,0.79375035 Z"
       id="path5013-4"
       sodipodi:nodetypes="cccccc" />
    <path
       inkscape:connector-curvature="0"
       style="display:inline;opacity:1;fill:#c4dcf0;fill-opacity:1;stroke:none;stroke-width:0.52916718;stroke-linecap:round;stroke-linejoin:round;stroke-miterlimit:4;stroke-dasharray:none;stroke-dashoffset:0;stroke-opacity:1"
       d="m 13.571781,2.0546553 c -0.219592,-0.017394 -0.371959,0.1317509 -0.657324,0.1824178 0.09967,0.073205 0.212639,0.1704772 0.347266,0.3028239 1.150298,1.1308203 -0.134414,0.834813 0.495577,2.3197552 0.629991,1.4849419 1.310177,0.3553605 1.32395,1.9683552 0.01377,1.6129947 -0.685302,0.495609 -1.289844,1.9910927 -0.604541,1.4954829 0.674517,1.1772083 -0.456303,2.3275069 -0.140273,0.142689 -0.258215,0.247952 -0.360701,0.324011 0.528245,0.07458 0.607052,0.501958 1.419035,-0.324011 1.130819,-1.1502986 -0.148238,-0.832024 0.456302,-2.3275069 0.604542,-1.4954837 1.303614,-0.378098 1.289844,-1.9910927 C 16.125813,5.2150127 15.445624,6.3445941 14.815633,4.8596522 14.185642,3.37471 15.470354,3.6707173 14.320056,2.539897 13.960588,2.1865156 13.744639,2.0683476 13.571781,2.0546553 Z"
       id="path5010-4"
       sodipodi:nodetypes="cccccccccccccc" />
    <path
       inkscape:connector-curvature="0"
       style="display:inline;opacity:1;fill:#c4dcf0;fill-opacity:1;stroke:none;stroke-width:0.52916718;stroke-linecap:round;stroke-linejoin:round;stroke-miterlimit:4;stroke-dasharray:none;stroke-dashoffset:0;stroke-opacity:1"
       d="m 11.845272,11.460799 c -0.198739,-0.01386 -0.458688,0.0244 -0.829924,0.181901 -1.346608,0.571303 -0.549578,1.181304 -1.591117,1.300696 0.263918,0.01448 0.504766,0.02424 0.681095,0.02274 1.612994,-0.01377 0.483414,-0.693442 1.968355,-1.323433 0.06741,-0.0286 0.127216,-0.04968 0.187586,-0.0708 -0.114776,-0.04615 -0.240116,-0.09884 -0.415995,-0.111104 z"
       id="path5005-3"
       sodipodi:nodetypes="ccccccc" />
    <path
       style="fill:#f5f9fb;fill-opacity:1;stroke:none;stroke-width:0.52916712;stroke-linecap:butt;stroke-linejoin:round;stroke-miterlimit:4;stroke-dasharray:none;stroke-opacity:1"
       d="m 3.704167,10.389547 -0.79375,0.45837 1.058333,1.322916 0.294039,-0.294038 -0.632935,-0.791069 C 3.439583,10.847917 3.530574,10.795363 3.582694,10.765274 l 0.650639,-0.375727 z"
       id="path5195-0"
       inkscape:connector-curvature="0"
       sodipodi:nodetypes="cccccccc" />
    <path
       inkscape:connector-curvature="0"
       style="opacity:1;fill:#549ad4;fill-opacity:1;stroke:none;stroke-width:0.52916712;stroke-linecap:butt;stroke-linejoin:round;stroke-miterlimit:4;stroke-dasharray:none;stroke-dashoffset:0;stroke-opacity:1"
       d="M 5.820822,11.906261 5.026994,12.700091 4.233165,11.906261 4.7625,11.376926 h 0.529321 z"
       id="path5204-7"
       sodipodi:nodetypes="cccccc" />
    <path
       inkscape:connector-curvature="0"
       style="opacity:1;fill:#3588cb;fill-opacity:1;stroke:none;stroke-width:0.52916712;stroke-linecap:butt;stroke-linejoin:round;stroke-miterlimit:4;stroke-dasharray:none;stroke-dashoffset:0;stroke-opacity:1"
       d="m 5.473568,11.558985 c -0.206181,0.3188 -0.49747,0.575936 -0.842326,0.745174 L 4.851384,12.5243 c 0.141276,-0.0068 0.2789,-0.02691 0.411344,-0.05994 l 0.558105,-0.558106 z"
       id="path5211-8"
       sodipodi:nodetypes="cccccc" />
    <path
       style="fill:#549ad4;fill-opacity:1;stroke:none;stroke-width:0.26458332px;stroke-linecap:butt;stroke-linejoin:miter;stroke-opacity:1"
       d="m 4.246566,14.552123 0.515754,-2.116707 0.529257,9.3e-5 0.529256,2.116576 z"
       id="path5218-6"
       inkscape:connector-curvature="0"
       sodipodi:nodetypes="ccccc" />
    <path
       style="fill:#3588cb;fill-opacity:1;stroke:none;stroke-width:0.26458332px;stroke-linecap:butt;stroke-linejoin:miter;stroke-opacity:1"
       d="m 5.138704,12.456087 c 0,1.508329 -0.111621,1.579951 -0.784965,1.831413 0,0.174666 -0.01085,0.0838 -0.01085,0.264583 H 5.820836 L 5.29167,12.435417 Z"
       id="path5220-8"
       inkscape:connector-curvature="0"
       sodipodi:nodetypes="cccccc" />
    <path
       inkscape:connector-curvature="0"
       style="fill:#f5f9fb;fill-opacity:1;stroke:none;stroke-width:0.26458332px;stroke-linecap:butt;stroke-linejoin:miter;stroke-opacity:1"
       d="M 4.7625,12.435417 4.246769,14.552083 H 4.631242 L 5.146973,12.435417 Z"
       id="path5229-8"
       sodipodi:nodetypes="ccccc" />
    <path
       inkscape:connector-curvature="0"
       style="opacity:1;fill:#ffd1b5;fill-opacity:1;stroke:none;stroke-width:0.52916712;stroke-linecap:round;stroke-linejoin:round;stroke-miterlimit:4;stroke-dasharray:none;stroke-dashoffset:0;stroke-opacity:1"
       d="m 6.151562,13.49375 c -0.445482,0 -0.466724,0.713326 -0.859895,0.968933 v 1.6769 H 7.14375 c 0.529156,0 0.529156,-1.5875 0,-1.5875 H 6.614583 V 14.310755 C 6.619583,13.758378 6.416144,13.49375 6.151562,13.49375 Z"
       id="path5131-4"
       sodipodi:nodetypes="cccccccc" />
    <path
       style="opacity:1;fill:#c4dcf0;fill-opacity:1;stroke:none;stroke-width:0.52916664;stroke-linecap:round;stroke-linejoin:round;stroke-miterlimit:4;stroke-dasharray:none;stroke-dashoffset:0;stroke-opacity:1"
       d="m 4.2465658,14.552123 h 1.0451008 v 1.58746 H 4.2465658 Z"
       id="rect5136-3"
       inkscape:connector-curvature="0"
       sodipodi:nodetypes="ccccc" />
    <path
       inkscape:connector-curvature="0"
       style="opacity:1;fill:#ffa465;fill-opacity:1;stroke:none;stroke-width:0.52916712;stroke-linecap:butt;stroke-linejoin:round;stroke-miterlimit:4;stroke-dasharray:none;stroke-dashoffset:0;stroke-opacity:1"
       d="M 5.794478,9.5250003 C 5.680441,10.256588 5.187701,10.858932 4.520137,11.134721 l 0.159164,0.159163 c 0.02794,0.0012 0.05493,0.0057 0.0832,0.0057 0.260162,0 0.508104,-0.04833 0.737939,-0.132809 L 6.085418,10.583349 V 9.5250003 Z"
       id="path5119-1"
       sodipodi:nodetypes="cccccccc" />
    <path
       inkscape:connector-curvature="0"
       style="opacity:1;fill:#365b7a;fill-opacity:1;stroke:none;stroke-width:0.52916712;stroke-linecap:butt;stroke-linejoin:round;stroke-miterlimit:4;stroke-dasharray:none;stroke-dashoffset:0;stroke-opacity:1"
       d="m 5.027083,3.704167 c -0.181237,0 -0.358356,0.01832 -0.529166,0.05271 1.210391,0.2439369 2.116666,1.308752 2.116666,2.5931233 V 6.879167 H 7.672917 V 6.3500003 C 7.672917,4.884219 6.492864,3.704167 5.027083,3.704167 Z"
       id="path5090-4"
       sodipodi:nodetypes="ccccccc" />
    <path
       inkscape:connector-curvature="0"
       style="opacity:1;fill:#f5f9fb;fill-opacity:1;stroke:none;stroke-width:0.52916712;stroke-linecap:butt;stroke-linejoin:round;stroke-miterlimit:4;stroke-dasharray:none;stroke-dashoffset:0;stroke-opacity:1"
       d="m 5.027083,3.704167 c -1.46578,0 -2.645833,1.180052 -2.645833,2.6458333 V 6.879167 H 2.910417 V 6.3500003 c 0,-1.3764413 1.040638,-2.5004379 2.38125,-2.6323975 -0.08702,-0.00857 -0.175244,-0.013436 -0.264584,-0.013436 z"
       id="path5095-9"
       sodipodi:nodetypes="ccccccc" />
    <path
       inkscape:connector-curvature="0"
       style="opacity:1;fill:#ffb98d;fill-opacity:1;stroke:none;stroke-width:0.52916712;stroke-linecap:butt;stroke-linejoin:round;stroke-miterlimit:4;stroke-dasharray:none;stroke-dashoffset:0;stroke-opacity:1"
       d="m 7.143233,6.921542 v 0.7684281 c 0,0.1526638 -0.01716,0.3011705 -0.04806,0.4444175 0.08294,0.051929 0.17502,0.081131 0.269751,0.081132 0.316143,1.3e-6 0.572577,-0.2992249 0.572575,-0.6681761 C 7.937497,7.1783961 7.681064,6.8791658 7.3649245,6.8791671 7.313915,6.8791604 7.216495,6.900408 7.143233,6.921542 Z"
       id="path5099-2"
       sodipodi:nodetypes="ccccccc" />
    <path
       id="path5109-0"
       d="m 2.910933,6.921542 v 0.7684286 c 0,0.1526637 0.01716,0.3011704 0.04806,0.4444174 C 2.876053,8.186317 2.783974,8.215519 2.689242,8.215519 2.373099,8.2155208 2.116665,7.9162945 2.116668,7.5473433 2.11667,7.1783959 2.373103,6.8791657 2.6892415,6.879167 c 0.05101,-6.6e-6 0.1484295,0.02124 0.2216915,0.042375 z"
       style="opacity:1;fill:#ffd1b5;fill-opacity:1;stroke:none;stroke-width:0.52916712;stroke-linecap:butt;stroke-linejoin:round;stroke-miterlimit:4;stroke-dasharray:none;stroke-dashoffset:0;stroke-opacity:1"
       inkscape:connector-curvature="0"
       sodipodi:nodetypes="ccccccc" />
    <path
       style="opacity:1;fill:#ffb98d;fill-opacity:1;stroke:none;stroke-width:0.52916712;stroke-linecap:round;stroke-linejoin:round;stroke-miterlimit:4;stroke-dasharray:none;stroke-dashoffset:0;stroke-opacity:1"
       d="m 6.151562,13.49375 c -0.110121,0 -0.194283,0.04368 -0.264583,0.113171 0.123478,0.126189 0.201552,0.359044 0.198438,0.703834 v 0.228926 c 0,0.276986 0.264583,0.276986 0.529166,0.276986 V 14.310755 C 6.619583,13.758378 6.416144,13.49375 6.151562,13.49375 Z"
       id="path5172-6"
       inkscape:connector-curvature="0"
       sodipodi:nodetypes="ccccccc" />
    <path
       inkscape:connector-curvature="0"
       style="opacity:1;fill:#ffb98d;fill-opacity:1;stroke:none;stroke-width:0.52916712;stroke-linecap:round;stroke-linejoin:round;stroke-miterlimit:4;stroke-dasharray:none;stroke-dashoffset:0;stroke-opacity:1"
       d="m 6.614583,14.552083 c 0.529156,0 0.529156,1.5875 0,1.5875 H 7.14375 c 0.529156,0 0.529156,-1.5875 0,-1.5875 z"
       id="path5159-8"
       sodipodi:nodetypes="ccccc" />
    <path
       style="opacity:1;fill:#e4eff8;fill-opacity:1;stroke:none;stroke-width:0.52916712;stroke-linecap:butt;stroke-linejoin:round;stroke-miterlimit:4;stroke-dasharray:none;stroke-dashoffset:0;stroke-opacity:1"
       d="M 8.7311316,6.6147065 H 9.789457 V 7.937614 H 8.7311316 Z"
       id="rect5022-9"
       inkscape:connector-curvature="0"
       sodipodi:nodetypes="ccccc" />
    <path
       style="opacity:1;fill:#e4eff8;fill-opacity:1;stroke:none;stroke-width:0.52916712;stroke-linecap:butt;stroke-linejoin:round;stroke-miterlimit:4;stroke-dasharray:none;stroke-dashoffset:0;stroke-opacity:1"
       d="M 9.7894564,6.0855432 H 10.847782 V 7.9376135 H 9.7894564 Z"
       id="rect5025-2"
       inkscape:connector-curvature="0"
       sodipodi:nodetypes="ccccc" />
    <path
       style="opacity:1;fill:#e4eff8;fill-opacity:1;stroke:none;stroke-width:0.52916712;stroke-linecap:butt;stroke-linejoin:round;stroke-miterlimit:4;stroke-dasharray:none;stroke-dashoffset:0;stroke-opacity:1"
       d="m 10.847783,5.5563807 h 1.058326 V 7.937614 h -1.058326 z"
       id="rect5027-6"
       inkscape:connector-curvature="0"
       sodipodi:nodetypes="ccccc" />
    <path
       inkscape:connector-curvature="0"
       style="fill:#c4dcf0;fill-opacity:1;stroke:none;stroke-width:0.26458332px;stroke-linecap:butt;stroke-linejoin:miter;stroke-opacity:1"
       d="M 11.622029,5.5562503 C 11.401992,7.2797144 9.209026,7.6103247 8.73125,7.6620648 v 0.2754355 c 1.0583333,0 2.116667,0 3.175,0 v -2.38125 z"
       id="path5040-6"
       sodipodi:nodetypes="cccccc" />
    <path
       id="Ic_09"
       style="color:#000000;display:inline;fill:#333333;fill-opacity:1;stroke-width:1;stroke-linejoin:round"
       d="m 9.0993881,0.68390271 c -0.22667,0.1187491 -0.31712,0.300681 -0.37516,0.43922799 -0.058,0.1385472 -0.0912,0.2387636 -0.18758,0.3534495 -0.0963,0.1146859 -0.2628,0.2507568 -0.60718,0.3968556 -0.34437,0.1460987 -0.55956,0.1721616 -0.70898,0.1617392 -0.14942,-0.010422 -0.24502,-0.056546 -0.38498,-0.1110989 -0.17541,-0.068372 -0.35209,-0.1093757 -0.57617,-0.035138 -0.22409,0.074237 -0.43994,0.2379583 -0.73585,0.5389588 -0.28095,0.2857746 -0.43903,0.4969446 -0.51572,0.7110328 -0.0388,0.1083585 -0.0488,0.2097707 -0.0429,0.3017756 -1.57895,0.033128 -2.84781,1.3218401 -2.84781,2.908724 v 0.5167391 c -0.1657,0.1737658 -0.2656,0.4199945 -0.2656,0.6805453 -1e-5,0.4914466 0.35464,0.9337396 0.83765,0.9337476 0.0308,0 0.0617,-0.002 0.092,-0.0057 0.17198,0.484862 0.49965,0.8958818 0.92189,1.1776478 v 0.4046029 c -0.0413,2.05e-4 -0.0825,0.0069 -0.12092,0.02687 l -1.33425,0.691396 c -0.28198,0.146313 -0.56397,0.280936 -0.80664,0.484186 -0.24268,0.203247 -0.43675,0.492386 -0.49194995,0.872772 l -0.40823,2.808477 c -0.0595,0.410157 0.11109,0.790325 0.3829,1.04898 C 1.1957381,16.24835 1.5693281,16.4036 1.9625881,16.4036 c 2.30975,0.0013 4.0011,0 6.14695,0 0.39329,0 0.76653,-0.155213 1.03866,-0.413907 0.27214,-0.258693 0.44387,-0.63854 0.38292,-1.04898 l -0.27181,-1.825123 c 0.0472,0.0203 0.0973,0.03821 0.15089,0.05219 0.17979,0.0469 0.39908,0.06507 0.6970999,0.06253 0.42208,-0.0036 0.69105,-0.04496 0.90017,-0.154505 0.21183,-0.110968 0.30051,-0.265938 0.3731,-0.439229 0.058,-0.138547 0.0912,-0.239279 0.18757,-0.353965 0.0964,-0.114687 0.26488,-0.250241 0.60925,-0.39634 0.34438,-0.146098 0.55801,-0.17216 0.70743,-0.161739 0.14942,0.01042 0.24451,0.05654 0.38446,0.111098 0.13996,0.05455 0.33501,0.117103 0.57618,0.03721 0.22408,-0.07424 0.44046,-0.240025 0.73636,-0.541026 0.29592,-0.301 0.45669,-0.518784 0.52709,-0.744103 0.0704,-0.225321 0.0211,-0.41619 -0.0444,-0.576165 -0.0569,-0.1390039 -0.1064,-0.2336879 -0.11937,-0.3829059 -0.013,-0.149218 0.0102,-0.364222 0.15038,-0.7110338 0.14019,-0.346811 0.2735,-0.516634 0.38652,-0.614919 0.11303,-0.09828 0.21231,-0.132874 0.34984,-0.19326 0.15219,-0.06682 0.32126,-0.157266 0.43356,-0.3808364 0.10594,-0.21096 0.14208,-0.4806734 0.13848,-0.9027483 -0.004,-0.4220749 -0.0444,-0.6910536 -0.15398,-0.9001594 -0.10955,-0.2091055 -0.26972,-0.3018672 -0.43976,-0.3730856 -0.13855,-0.058029 -0.23877,-0.092786 -0.35346,-0.1891264 -0.11469,-0.09634 -0.25231,-0.263318 -0.39841,-0.6076852 -0.1461,-0.3443669 -0.17061,-0.5574809 -0.16019,-0.7068989 0.0104,-0.1494177 0.0571,-0.2465682 0.11162,-0.3865206 0.0546,-0.1399528 0.11535,-0.332472 0.0351,-0.5746138 -0.0742,-0.2240853 -0.23797,-0.4399327 -0.53898,-0.7358364 -0.301,-0.2959036 -0.52086,-0.4571903 -0.74618,-0.5275905 -0.22533,-0.0704 -0.40547,-0.024118 -0.57411,0.044956 -0.139,0.056935 -0.23369,0.1063943 -0.38291,0.1193666 -0.14923,0.012972 -0.36423,-0.010174 -0.71105,-0.150371 -0.34682,-0.1401969 -0.51665,-0.2740135 -0.61493,-0.3870375 -0.0983,-0.113024 -0.13339,-0.2117795 -0.19378,-0.3493156 -0.0604,-0.13753589 -0.15384,-0.32089789 -0.3824,-0.43354389 -0.21174,-0.1043605 -0.47861,-0.1426067 -0.9008099,-0.1389927 -0.42221,0.00361 -0.69119,0.04497 -0.9003,0.154515 z M 10.663458,1.1407001 c 0.0566,0.030132 0.0861,0.061021 0.13487,0.1720741 0.0488,0.1110539 0.11588,0.2986264 0.27905,0.4862514 0.16316,0.1876251 0.41401,0.3670818 0.81491,0.5291407 0.4009,0.162059 0.70724,0.2070439 0.95495,0.1855093 0.24772,-0.021535 0.42673,-0.1080161 0.53897,-0.1539882 0.11224,-0.045971 0.15222,-0.048333 0.21497,-0.031521 0.0863,0.023134 0.25865,0.1309946 0.53277,0.4004729 0.27413,0.2694781 0.38012,0.440676 0.40823,0.5255235 0.0245,0.07397 0.0167,0.1035073 -0.0274,0.2165138 -0.044,0.1130051 -0.12687,0.2929852 -0.14417,0.5410255 -0.0173,0.2480406 0.0321,0.5532497 0.20101,0.9513164 0.16889,0.3980685 0.35479,0.6467006 0.54518,0.8066299 0.19038,0.1599294 0.37593,0.2223647 0.48781,0.269221 0.075,0.031424 0.13473,0.053626 0.1762,0.1328018 0.0415,0.079175 0.0902,0.2739436 0.0935,0.6583255 0.003,0.3843822 -0.042,0.5800034 -0.0822,0.6598759 -0.0327,0.065039 -0.0626,0.08611 -0.17362,0.1348686 -0.11105,0.04876 -0.29657,0.1163988 -0.4842,0.2795561 -0.18762,0.163156 -0.36915,0.415553 -0.53122,0.816448 -0.16205,0.400892 -0.20756,0.7051568 -0.18602,0.9528658 0.0215,0.247708 0.11059,0.4267229 0.15657,0.5389599 0.0357,0.08714 0.0561,0.131715 0.0295,0.21703 -0.0267,0.08532 -0.13374,0.266541 -0.39841,0.531208 -0.27182,0.271809 -0.44068,0.380115 -0.52553,0.408224 -0.0687,0.02275 -0.10403,0.01821 -0.21704,-0.02584 -0.11301,-0.04405 -0.29299,-0.128935 -0.54104,-0.146237 -0.24805,-0.0173 -0.55274,0.03213 -0.95081,0.201011 -0.39808,0.168881 -0.64671,0.354775 -0.80665,0.54516 -0.15994,0.190385 -0.22496,0.377997 -0.27182,0.489869 -0.037,0.08834 -0.0617,0.137962 -0.13073,0.17414 -0.0792,0.04148 -0.27343,0.09025 -0.65782,0.09353 -0.2714099,0.0023 -0.4525899,-0.01832 -0.5606699,-0.04651 -0.1081,-0.0282 -0.13874,-0.05382 -0.16433,-0.08216 -0.0696,-0.105846 -0.11586,-0.312468 -0.2803,-0.523452 -0.0708,-0.338579 -0.25289,-0.600824 -0.47697,-0.789061 -0.24231,-0.203561 -0.5258,-0.338346 -0.80871,-0.484185 l -1.34149,-0.691397 c -0.0384,-0.01998 -0.0801,-0.02667 -0.12142,-0.02687 V 9.6524241 c 0.25792,-0.171932 0.48192,-0.390237 0.65523,-0.6464408 0.86878,1.2371147 2.41897,1.8332147 3.9092099,1.4701237 1.59727,-0.38917 2.74751,-1.7876247 2.82197,-3.4290806 0.0745,-1.6414557 -0.94609,-3.1378891 -2.50158,-3.6698805 -0.77775,-0.2659956 -1.5961699,-0.2584341 -2.3398399,-0.01757 -0.63142,0.204504 -1.20763,0.577178 -1.65722,1.0960035 -0.43532,-0.5075395 -1.04256,-0.8627929 -1.73163,-0.9766366 -0.0172,-0.048225 -0.0256,-0.090936 0,-0.1622564 0.0318,-0.08886 0.14101,-0.2575188 0.39686,-0.5177724 0.26949,-0.2741199 0.44018,-0.3801145 0.52503,-0.4082238 0.0752,-0.02491 0.12321,-0.011248 0.21702,0.02532 0.11301,0.044049 0.29093,0.1294524 0.53897,0.1467538 0.24805,0.017302 0.55533,-0.032647 0.95341,-0.201528 0.39807,-0.168881 0.6462,-0.354259 0.80612,-0.5446429 0.15994,-0.1903838 0.22289,-0.3785152 0.26975,-0.4903852 0.0311,-0.074261 0.0536,-0.1321464 0.13281,-0.1736244 0.0792,-0.041478 0.27394,-0.090248 0.6582099,-0.093529 0.38426,-0.00328 0.57989,0.041526 0.65976,0.081646 z m 0.40045,2.7381997 c 1.33543,0.4567267 2.20635,1.7355195 2.14245,3.1443569 -0.0639,1.4088376 -1.04863,2.6050964 -2.41995,2.9392114 -1.3672799,0.3331349 -2.7854399,-0.271404 -3.4932199,-1.4856248 0.0237,0.0023 0.0478,0.0036 0.0718,0.0036 0.48301,2e-6 0.8356,-0.442295 0.83559,-0.9337471 0,-0.2602883 -0.0987,-0.5062916 -0.26355,-0.6800281 v -0.517239 c 0,-0.5262877 -0.1398,-1.0194548 -0.38394,-1.4453191 0.62382,-0.7830416 1.5689,-1.2139966 2.5408699,-1.1962508 0.32399,0.00592 0.65087,0.061911 0.96995,0.1710406 z M 7.4078981,6.3494294 v 0.2656037 h -0.26355 c -0.21061,0 -0.41382,-0.083613 -0.56274,-0.2325324 -0.14892,-0.1489195 -0.23253,-0.3516079 -0.23253,-0.5622121 -6.7e-4,-0.1262603 -0.0905,-0.2344498 -0.21446,-0.2583696 -0.11679,-0.017734 -0.18555,0.014014 -0.25218,0.07131 -0.61118,0.5837686 -1.73902,0.981804 -2.97285,0.981804 l -0.26353,0.00156 V 6.3494399 c 0,-1.3237125 1.05744,-2.3806166 2.38118,-2.3806219 1.32374,-5.2e-6 2.38066,1.0568989 2.38066,2.3806114 z M 10.846868,5.2911478 c -0.14616,5.292e-4 -0.2641,0.1194406 -0.26354,0.2656039 V 5.8202883 H 9.7885681 c -0.14617,5.292e-4 -0.2641,0.1194406 -0.26354,0.2656038 v 0.263537 h -0.79528 c -0.14617,5.17e-4 -0.26411,0.1194405 -0.26355,0.2656037 v 1.3223355 c -5.5e-4,0.146162 0.11738,0.265086 0.26355,0.265603 h 3.1759399 c 0.14616,-5.17e-4 0.2641,-0.119441 0.26354,-0.265603 V 5.5567514 c 5.6e-4,-0.1461633 -0.11738,-0.2650869 -0.26354,-0.2656039 z m 0.26613,0.5291408 h 0.52708 v 1.8535428 h -0.52708 z M 5.9077681,6.2925878 c 0.0661,0.1722217 0.16795,0.3301914 0.30076,0.4629981 0.18436,0.1843587 0.41788,0.3095549 0.66971,0.3617174 v 0.57203 c 0,1.019972 -0.81957,1.8359738 -1.851,1.8359738 -1.03144,0 -1.85151,-0.8159998 -1.85151,-1.8359738 V 7.1359058 c 1.05447,-0.04346 2.02542,-0.3401682 2.73204,-0.843318 z m 4.1464099,0.056841 h 0.52915 v 1.3244024 h -0.52915 z M 8.9958681,6.87857 h 0.52916 v 0.7952612 h -0.52916 z m -6.34981,0.8107633 c 0,0.087851 0.005,0.1745531 0.0145,0.25992 -0.14032,-0.01855 -0.28009,-0.1718097 -0.28008,-0.4025398 0,-0.2227643 0.13034,-0.3718981 0.265595,-0.3984058 z m 4.76184,-0.5410256 c 0.13497,0.026506 0.26355,0.175639 0.26355,0.3984059 0,0.2307328 -0.13791,0.3839907 -0.27802,0.4025397 0.009,-0.085367 0.0145,-0.1720691 0.0145,-0.2599199 z m -1.58796,2.7676534 v 0.5570449 l -0.63871,0.64024 h -0.31057 l -0.6387,-0.64024 V 9.9175111 c 0.24893,0.08779 0.51631,0.1369369 0.79528,0.1369369 0.27852,0 0.54417,-0.05094 0.7927,-0.1384869 z m -2.16622,0.7265359 0.7343,0.734286 -0.3979,0.398405 -0.73895,-0.923413 z m 2.74652,0 0.40307,0.207728 -0.74103,0.924963 -0.39686,-0.397888 z m 0.88157,0.45473 c 0.34195,0.176289 0.70953,0.363286 0.99889,0.568412 0.1713,0.143917 0.27046,0.287049 0.30849,0.543094 l 0.41805,2.808477 c 0.0335,0.225244 -0.0534,0.425131 -0.22427,0.587531 -0.17083,0.162401 -0.42446,0.269738 -0.67384,0.269738 h -0.37878 c 0.053,-0.16664 0.0739,-0.34776 0.0739,-0.529141 0,-0.227846 -0.0326,-0.453954 -0.12092,-0.652641 -0.0441,-0.09934 -0.10295,-0.19361 -0.19171,-0.271289 -0.0888,-0.07768 -0.21497,-0.134868 -0.34726,-0.134868 h -0.27181 c -8.5e-4,-0.294878 -0.0468,-0.540199 -0.16381,-0.730153 -0.12113,-0.196565 -0.33606,-0.328128 -0.55654,-0.328128 -0.13619,0 -0.26012,0.04906 -0.36017,0.118333 l -0.20722,-0.830917 0.23616,-0.235632 0.077,0.077 c 0.11131,0.110722 0.29416,0.100504 0.39273,-0.0217 z m -4.50916,0.0031 0.98855,1.235006 c 0.0987,0.123637 0.2833,0.133897 0.3948,0.0217 l 0.077,-0.077 0.23616,0.235632 -0.44286,1.770865 h -0.7436 l 0.0548,-0.160189 c 0.0486,-0.138629 -0.0248,-0.290396 -0.16381,-0.337938 -0.13806,-0.04733 -0.28833,0.02635 -0.33589,0.164324 l -0.17776,0.511571 c -0.0598,0.171984 0.0675,0.351441 0.24959,0.351383 h 1.07225 v 1.058798 h -2.01945 c -0.24943,0 -0.50322,-0.105311 -0.67384,-0.267671 -0.17063,-0.16236 -0.25705,-0.363763 -0.22428,-0.589598 l 0.40824,-2.808477 c 0.0371,-0.25561 0.13683,-0.399322 0.3085,-0.543094 0.35278,-0.250516 0.6233,-0.374018 0.9916,-0.565312 z m 2.09801,0.542058 h 0.31057 l 0.26457,0.263538 -0.41856,0.42011 -0.42013,-0.42011 z m -2.75376,1.056215 c -0.14693,-5.82e-4 -0.26618,0.119188 -0.2656,0.266121 5e-4,0.146169 0.11943,0.264113 0.2656,0.263537 h 1.05883 c 0.14541,-5e-4 0.26303,-0.11813 0.26353,-0.263537 5.8e-4,-0.14617 -0.11736,-0.265618 -0.26353,-0.266121 z m 2.79303,0.2377 c 0.0738,0.03639 0.16031,0.03639 0.2341,0 l 0.2439,0.978704 c -0.0583,0.112412 -0.11474,0.209757 -0.17157,0.270254 -0.0609,0.06483 -0.1086,0.09317 -0.20514,0.101281 h -0.43872 z m 2.28876,1.971449 c 0.044,0.099 0.0765,0.268615 0.0765,0.437678 0,0.169062 -0.0325,0.338682 -0.0765,0.437678 -0.0124,0.03146 -0.0395,0.06662 -0.0543,0.0915 h -1.58797 v -1.282029 c 0.0164,-0.01497 0.0318,-0.03034 0.0465,-0.04599 0.12866,-0.136986 0.20636,-0.289044 0.27387,-0.421658 0.0675,-0.132614 0.12576,-0.246421 0.17363,-0.304877 0.0479,-0.05846 0.0536,-0.06253 0.1018,-0.06253 l -2e-5,-1.22e-4 c 0.0441,0 0.0599,0.0022 0.10542,0.07596 0.0455,0.07381 0.0937,0.231565 0.0915,0.475932 v 0.242884 c 5.2e-4,0.146164 0.11943,0.264616 0.2656,0.264054 l 0.52867,8e-4 c 0.0094,0.0099 0.0333,0.04122 0.0553,0.09072 z m -2.68717,-0.09207 h 0.51572 v 1.058798 h -0.51572 z"
       sodipodi:nodetypes="cccccccccccccccccccccccccccccccccccccccccccccccccccccccccccccccccccccccccccccccccccccccccccccccccccccccccccccccccccccccccccccccccccccccccccccccccccccccccccccccccccccccccccccccccccccccccccccccccccccccccccccccccccccccccccccccccccccccccccccccccccccccccccccccccccccccccccccccccccccccccccccccccccc"
       inkscape:export-filename="/home/wanzabuyumna/@WANZ_DESIGN/NICON STUDIO MAGANG/Project 3/Style Line/PNG/Ic_09.png"
       inkscape:export-xdpi="102.40009"
       inkscape:export-ydpi="102.40009"
       inkscape:connector-curvature="0" />
  </g>
</svg>
